<svg xmlns="http://www.w3.org/2000/svg" xmlns:xlink="http://www.w3.org/1999/xlink" aria-hidden="true" role="img" class="iconify iconify--uil" width="32" height="32" preserveAspectRatio="xMidYMid meet" viewBox="0 0 24 24"><path fill="#ffb800" d="M21 11h-3.94a.78.78 0 0 0-.21 0h-.17a1.3 1.3 0 0 0-.15.1a1.67 1.67 0 0 0-.16.12a1 1 0 0 0-.09.13a1.32 1.32 0 0 0-.12.2l-1.6 4.41l-4.17-11.3a1 1 0 0 0-1.88 0L6.2 11H3a1 1 0 0 0 0 2h4.3a.86.86 0 0 0 .16-.1a1.67 1.67 0 0 0 .16-.12l.09-.13a1 1 0 0 0 .12-.2l1.62-4.53l4.16 11.42a1 1 0 0 0 .94.66a1 1 0 0 0 .94-.66l2.3-6.34H21a1 1 0 0 0 0-2Z"></path></svg>